<svg width="801" height="506" xmlns="http://www.w3.org/2000/svg" preserveAspectRatio="xMidYMid meet">
 <metadata>Created by potrace 1.12, written by Peter Selinger 2001-2015</metadata>

 <g>
  <title>background</title>
  <rect fill="none" id="canvas_background" height="402" width="582" y="-1" x="-1"/>
 </g>
 <g>
  <title>Layer 1</title>
  <g id="svg_1" stroke="#00000" fill="black" transform="translate(0,506) scale(0.10000000149011612,-0.10000000149011612) ">
   <path stroke="#00000" id="svg_3" d="m4413,4805c-18,-19 -33,-37 -33,-40c0,-3 10,-16 21,-28c18,-19 67,-80 154,-196c11,-14 45,-59 77,-100c32,-40 55,-78 51,-84c-3,-5 -1,-7 4,-4c11,7 48,-39 48,-60c0,-7 5,-13 10,-14c23,-2 36,-21 23,-36c-9,-11 -8,-13 3,-11c8,2 13,-2 12,-9c-2,-7 3,-10 10,-7c8,3 30,-19 53,-52c36,-51 70,-96 139,-181c15,-18 24,-37 21,-42c-3,-5 2,-15 12,-22c15,-12 16,-12 7,2c-18,28 32,-33 125,-153c54,-70 88,-122 84,-129c-4,-7 -3,-9 3,-6c14,9 66,-60 57,-75c-4,-6 -3,-8 3,-5c13,8 45,-26 41,-44c-2,-7 2,-13 9,-14c17,0 55,-53 47,-66c-4,-7 -3,-9 4,-5c6,3 19,-5 29,-19c10,-15 37,-49 61,-77c41,-50 54,-77 30,-62c-7,4 -8,3 -4,-5c4,-6 11,-9 16,-6c5,3 18,-7 29,-22c32,-44 34,-46 64,-81c15,-19 24,-39 21,-44c-4,-6 -2,-8 3,-5c6,4 19,-5 29,-20c9,-15 37,-51 61,-81c24,-29 40,-58 37,-64c-4,-6 -3,-8 3,-5c5,3 20,-7 32,-23l22,-30l577,0c521,1 575,2 557,16c-11,8 -19,20 -17,25c1,5 -1,8 -5,8c-23,-4 -35,3 -30,15c4,11 1,13 -10,9c-12,-5 -14,-3 -8,7c5,8 4,11 -3,6c-6,-3 -46,21 -89,55c-43,33 -111,85 -151,115c-42,32 -70,60 -66,66c4,7 2,8 -5,4c-15,-10 -43,13 -34,27c3,5 1,7 -5,3c-11,-7 -93,51 -129,91c-12,13 -23,23 -25,21c-6,-6 -78,55 -73,62c3,5 0,12 -6,16c-8,4 -9,3 -5,-4c13,-22 -7,-12 -52,26c-25,20 -58,46 -73,57c-141,106 -209,160 -209,167c0,4 -5,8 -10,8c-9,0 -39,22 -155,113c-5,4 -52,39 -102,78c-51,40 -90,76 -86,82c3,6 1,7 -6,3c-10,-7 -190,126 -199,146c-2,5 -8,8 -13,8c-18,0 -189,142 -182,153c3,6 1,7 -5,3c-12,-7 -32,6 -162,108c-79,62 -94,74 -71,61c10,-5 12,-4 7,4c-4,6 -11,9 -16,6c-8,-5 -41,19 -100,72c-14,13 -28,23 -33,23c-4,0 -5,5 -1,12c4,6 3,8 -3,5c-11,-7 -129,80 -126,93c1,3 -4,7 -11,7c-14,0 -136,92 -136,102c0,4 6,13 13,21c6,8 3,7 -9,-3c-21,-17 -36,-11 -45,18c-2,6 -8,9 -15,7c-6,-1 -19,7 -29,18c-10,11 -21,20 -24,20c-3,0 -21,-16 -38,-35z"/>
   <path stroke="#00000" id="svg_4" d="m4476,4611c-3,-5 2,-15 12,-22c15,-12 16,-12 5,2c-7,9 -10,19 -6,22c3,4 4,7 0,7c-3,0 -8,-4 -11,-9z"/>
   <path stroke="#00000" id="svg_5" d="m4436,4588c3,-5 10,-6 15,-3c13,9 11,12 -6,12c-8,0 -12,-4 -9,-9z"/>
   <path stroke="#00000" id="svg_6" d="m4215,4410c-35,-23 -65,-74 -65,-110c0,-55 73,-130 127,-130c68,0 129,68 126,141c-4,94 -110,150 -188,99z"/>
   <path stroke="#00000" fill="#00000" id="svg_7" d="m2803,2792l-283,-2l3,-813l2,-812l35,-2c111,-4 1774,-2 1782,3c5,4 4,13 -5,22c-33,40 -97,163 -91,175c4,6 4,9 -1,5c-4,-4 -26,23 -49,60l-42,67l-524,-4c-289,-2 -528,-5 -531,-7c-4,-2 -7,76 -7,174c-1,97 2,173 6,167c4,-5 16,-9 27,-9c11,1 199,2 418,3l397,1l0,160l0,160l-424,-2l-425,-3l2,325c1,179 3,254 4,168l4,-158l554,0c305,0 558,-1 563,-2c4,-2 8,70 9,160c1,89 -1,162 -5,162c-224,3 -1217,4 -1419,2zm294,-884c-1,-40 -3,-8 -3,72c0,80 2,112 3,73c2,-40 2,-106 0,-145zm0,-655c-1,-43 -3,-10 -3,72c0,83 2,118 3,78c2,-40 2,-107 0,-150z"/>
   <path stroke="#00000" fill="#00000" id="svg_8" d="m4820,2790c-87,-11 -179,-40 -253,-78c-86,-44 -172,-134 -182,-190c-8,-48 -3,-142 7,-135c5,2 8,-1 8,-6c0,-19 27,-47 393,-410c244,-244 357,-363 357,-377c0,-38 -38,-73 -97,-90c-48,-14 -97,-15 -387,-9c-232,5 -335,4 -340,-3c-3,-6 -2,-13 4,-17c6,-4 8,-11 5,-16c-4,-5 -2,-9 2,-9c15,0 45,-59 37,-73c-4,-6 -4,-9 1,-5c11,11 78,-99 69,-113c-4,-7 -3,-9 3,-6c5,3 22,-16 38,-44l29,-49l418,0c373,0 428,2 518,20c56,10 126,31 157,45c30,13 60,22 66,18c6,-4 7,-1 2,7c-6,10 -4,12 9,7c10,-4 15,-3 11,3c-3,5 4,15 17,21c13,6 44,36 70,66c35,41 49,67 54,99c8,56 -2,110 -29,154c-12,19 -21,39 -19,43c1,5 -1,6 -5,4c-5,-3 -167,153 -360,346c-321,321 -352,355 -349,382c3,27 53,81 65,70c2,-3 11,1 19,8c11,9 109,13 390,15c207,1 377,3 378,5c2,2 -16,28 -41,59c-33,42 -41,58 -32,67c9,9 8,11 -4,6c-13,-5 -33,16 -80,81c-35,49 -63,92 -61,97c1,5 -2,6 -7,3c-5,-4 -12,-2 -16,3c-7,12 -780,13 -865,1z"/>
   <path stroke="#00000" id="svg_9" d="m5526,1922c-3,-5 1,-9 9,-9c8,0 12,4 9,9c-3,4 -7,8 -9,8c-2,0 -6,-4 -9,-8z"/>
   <path stroke="#00000" id="svg_10" d="m890,290c0,-163 1,-170 20,-170c17,0 20,7 20,52l0,53l46,-53c37,-42 52,-52 77,-52l31,0l-59,60l-59,60l54,55c54,55 54,55 25,55c-22,0 -39,-11 -72,-47l-42,-48l-1,103c0,95 -1,102 -20,102c-19,0 -20,-7 -20,-170z"/>
   <path stroke="#00000" id="svg_11" d="m1127,453c-4,-3 -7,-15 -7,-25c0,-13 7,-18 25,-18c29,0 36,34 9,44c-19,7 -19,7 -27,-1z"/>
   <path stroke="#00000" id="svg_12" d="m2366,445c-8,-22 1,-35 25,-35c15,0 20,6 17,22c-4,27 -33,36 -42,13z"/>
   <path stroke="#00000" id="svg_13" d="m2650,396l0,-65l-27,15c-87,45 -170,-39 -147,-147c15,-71 85,-104 143,-68c26,15 31,16 31,4c0,-8 9,-15 20,-15c19,0 20,7 20,170c0,163 -1,170 -20,170c-18,0 -20,-7 -20,-64zm-24,-90c30,-22 27,-111 -5,-137c-29,-24 -52,-24 -82,-1c-29,24 -32,101 -4,132c21,23 63,26 91,6z"/>
   <path stroke="#00000" id="svg_14" d="m4177,453c-4,-3 -7,-15 -7,-25c0,-23 38,-25 47,-2c8,21 -24,43 -40,27z"/>
   <path stroke="#00000" id="svg_15" d="m5867,454c-4,-4 -7,-16 -7,-26c0,-13 7,-18 26,-18c21,0 25,4 22,22c-3,23 -27,35 -41,22z"/>
   <path stroke="#00000" id="svg_16" d="m7069,453c-1,-5 -1,-32 -1,-61c0,-50 -1,-52 -21,-45c-35,12 -83,8 -111,-10c-50,-33 -59,-136 -15,-191c17,-21 29,-26 68,-26c26,0 52,5 58,11c8,8 13,8 17,0c4,-6 16,-11 27,-11c18,0 19,8 19,170c0,163 -1,170 -20,170c-11,0 -20,-3 -21,-7zm-25,-148c49,-50 19,-155 -45,-155c-9,0 -27,8 -40,18c-28,24 -31,103 -3,133c20,23 67,25 88,4z"/>
   <path stroke="#00000" id="svg_17" d="m3341,428c-62,-32 -84,-66 -89,-136c-5,-71 22,-133 68,-157c33,-17 126,-20 164,-5c25,9 26,13 26,85l0,75l-55,0c-48,0 -55,-2 -55,-20c0,-16 7,-20 35,-20c34,0 35,-1 35,-40c0,-35 -4,-42 -27,-51c-61,-23 -133,20 -148,90c-9,41 10,103 41,132c19,18 37,24 72,24c26,0 57,-4 70,-8c18,-7 22,-5 22,12c0,26 -9,31 -67,37c-38,4 -58,0 -92,-18z"/>
   <path stroke="#00000" id="svg_18" d="m422,423c2,-13 13,-18 43,-18l40,0l0,-143c0,-141 0,-142 23,-142c22,0 22,1 22,145l0,145l45,0c33,0 45,4 45,15c0,12 -19,15 -111,15c-99,0 -110,-2 -107,-17z"/>
   <path stroke="#00000" id="svg_19" d="m1939,413c-1,-40 -1,-157 0,-230c1,-56 3,-63 21,-63c18,0 20,7 20,60l0,60l35,0c43,0 90,23 105,49c19,37 12,100 -15,126c-21,22 -33,25 -95,25c-70,0 -70,0 -71,-27zm108,-14c32,-12 43,-26 43,-56c0,-34 -34,-63 -75,-63l-35,0l0,65c0,72 7,77 67,54z"/>
   <path stroke="#00000" id="svg_20" d="m4980,280c0,-153 1,-160 20,-160c18,0 20,7 20,70l0,70l60,0c53,0 60,2 60,20c0,18 -7,20 -58,20l-58,0l-2,36c-5,66 2,74 69,74c46,0 59,3 59,15c0,12 -16,15 -85,15l-85,0l0,-160z"/>
   <path stroke="#00000" id="svg_21" d="m3863,413c-7,-2 -13,-18 -13,-34c0,-22 -5,-29 -20,-29c-11,0 -20,-7 -20,-15c0,-8 9,-15 20,-15c18,0 20,-7 20,-81c0,-102 9,-119 60,-119c47,0 57,27 13,32c-28,3 -28,4 -31,86l-3,82l31,0c20,0 30,5 30,15c0,10 -10,15 -30,15c-28,0 -30,3 -30,35c0,35 -3,38 -27,28z"/>
   <path stroke="#00000" id="svg_22" d="m4028,413c-12,-3 -18,-14 -18,-34c0,-22 -5,-29 -20,-29c-11,0 -20,-7 -20,-15c0,-8 9,-15 20,-15c18,0 20,-7 20,-72c0,-96 14,-123 63,-123c41,0 51,17 15,25c-21,5 -23,12 -26,88l-3,82l30,0c23,0 29,4 25,15c-4,8 -17,15 -30,15c-21,0 -24,5 -24,35c0,19 -3,34 -7,34c-5,-1 -16,-3 -25,-6z"/>
   <path stroke="#00000" id="svg_23" d="m6523,413c-7,-2 -13,-18 -13,-34c0,-22 -5,-29 -20,-29c-11,0 -20,-7 -20,-15c0,-8 9,-15 20,-15c18,0 20,-7 20,-88c0,-100 7,-112 62,-112c30,0 38,4 38,18c0,13 -8,18 -27,17l-28,0l-3,83l-3,82l31,0c20,0 30,5 30,15c0,10 -10,15 -30,15c-28,0 -30,3 -30,35c0,35 -3,38 -27,28z"/>
   <path stroke="#00000" id="svg_24" d="m678,348c-18,-6 -28,-17 -28,-30c0,-15 4,-18 18,-13c41,18 75,18 89,-1c19,-26 17,-32 -17,-38c-16,-3 -44,-9 -61,-12c-63,-12 -70,-111 -10,-132c19,-7 39,-6 64,3c20,7 37,9 37,4c0,-5 9,-9 20,-9c19,0 20,7 20,95c0,88 -2,98 -25,120c-26,27 -60,31 -107,13zm92,-138c0,-43 -60,-76 -88,-48c-32,32 -3,67 56,68c25,0 32,-4 32,-20z"/>
   <path stroke="#00000" id="svg_25" d="m1318,346c-16,-8 -28,-11 -28,-5c0,5 -9,9 -20,9c-19,0 -20,-7 -20,-115c0,-108 1,-115 20,-115c18,0 20,7 20,83c0,92 13,117 62,117c35,0 48,-35 48,-125c0,-68 2,-75 20,-75c18,0 20,7 20,85c0,138 -40,183 -122,141z"/>
   <path stroke="#00000" id="svg_26" d="m1565,351c-40,-17 -59,-50 -63,-109c-4,-51 -1,-62 22,-89c31,-36 62,-44 110,-28c35,12 36,12 36,-11c0,-13 -10,-33 -22,-45c-20,-18 -31,-20 -81,-15c-51,5 -58,4 -55,-11c4,-22 53,-35 104,-28c83,12 103,63 96,247l-3,88l-32,-1c-18,0 -45,2 -62,5c-16,3 -39,2 -50,-3zm87,-48c26,-23 25,-106 -2,-133c-28,-28 -64,-25 -89,6c-58,74 23,188 91,127z"/>
   <path stroke="#00000" id="svg_27" d="m2262,344c-12,-8 -22,-10 -22,-5c0,6 -9,11 -20,11c-19,0 -20,-7 -20,-115c0,-108 1,-115 20,-115c18,0 20,7 20,78c0,91 17,127 56,119c20,-3 24,0 24,19c0,28 -24,32 -58,8z"/>
   <path stroke="#00000" id="svg_28" d="m2809,345c-30,-16 -59,-70 -59,-109c0,-38 25,-93 48,-105c22,-12 100,-15 126,-5c9,3 16,15 16,26c0,15 -4,18 -17,13c-59,-26 -118,-7 -125,40c-3,18 3,20 80,23l83,3l-6,32c-17,86 -76,120 -146,82zm89,-37c7,-7 12,-20 12,-30c0,-15 -9,-18 -55,-18c-59,0 -68,10 -38,42c18,20 63,24 81,6z"/>
   <path stroke="#00000" id="svg_29" d="m3630,342c-65,-32 -79,-144 -25,-198c19,-19 35,-24 74,-24c63,0 81,7 81,32c0,15 -4,18 -17,13c-62,-27 -123,-6 -123,40c0,25 1,25 81,25l81,0l-6,38c-8,43 -55,92 -89,92c-12,0 -38,-8 -57,-18zm90,-41c18,-35 12,-41 -45,-41c-59,0 -68,10 -38,42c22,24 69,24 83,-1z"/>
   <path stroke="#00000" id="svg_30" d="m4363,345c-14,-10 -24,-12 -28,-5c-3,5 -15,10 -26,10c-18,0 -19,-8 -19,-115c0,-113 0,-115 23,-115c21,0 22,3 19,63c-5,88 16,137 57,137c41,0 51,-23 51,-120c0,-78 1,-81 22,-78c21,3 22,7 20,98c-3,87 -5,97 -28,118c-29,26 -61,28 -91,7z"/>
   <path stroke="#00000" id="svg_31" d="m4599,345c-53,-29 -72,-139 -33,-192c26,-34 82,-46 120,-26c33,17 34,17 34,-6c0,-10 -9,-30 -21,-45c-16,-20 -29,-26 -60,-26c-22,0 -49,5 -60,10c-16,9 -19,7 -19,-14c0,-22 6,-26 44,-31c61,-9 113,9 137,49c16,26 19,50 19,159c0,120 -1,127 -20,127c-11,0 -20,-5 -20,-11c0,-5 -10,-3 -22,5c-28,20 -65,20 -99,1zm105,-47c38,-54 4,-148 -54,-148c-37,0 -60,32 -60,85c0,56 22,85 65,85c24,0 39,-7 49,-22z"/>
   <path stroke="#00000" id="svg_32" d="m5228,349c-17,-7 -28,-18 -28,-30c0,-16 4,-17 26,-9c41,16 72,12 84,-11c7,-11 10,-23 8,-25c-3,-2 -29,-8 -59,-14c-30,-6 -60,-18 -66,-27c-14,-19 -17,-71 -5,-90c15,-24 56,-31 95,-18c20,7 37,9 37,4c0,-5 9,-9 20,-9c19,0 20,7 20,94c0,74 -4,98 -17,115c-21,25 -76,35 -115,20zm92,-139c0,-43 -60,-76 -88,-48c-32,32 -1,66 61,67c21,1 27,-4 27,-19z"/>
   <path stroke="#00000" id="svg_33" d="m5458,344c-59,-31 -44,-93 28,-125c37,-15 45,-23 42,-41c-2,-19 -9,-23 -38,-22c-19,0 -43,4 -53,9c-16,6 -18,4 -15,-16c6,-46 106,-44 141,3c29,38 12,73 -49,99c-36,16 -45,25 -42,42c3,19 9,22 51,20c39,-1 47,2 47,17c0,31 -66,39 -112,14z"/>
   <path stroke="#00000" id="svg_34" d="m5693,345c-94,-40 -89,-189 7,-221c47,-16 94,-4 98,25c3,20 1,21 -17,12c-30,-16 -55,-13 -85,10c-21,16 -26,29 -26,63c0,62 29,90 86,83c37,-4 44,-2 44,13c0,30 -55,38 -107,15z"/>
   <path stroke="#00000" id="svg_35" d="m6058,346c-16,-8 -28,-11 -28,-5c0,5 -9,9 -19,9c-18,0 -20,-9 -23,-115c-3,-114 -3,-115 20,-115c21,0 22,4 22,83c0,92 16,122 61,115c34,-4 49,-43 49,-125c0,-66 2,-73 20,-73c18,0 20,7 20,79c0,94 -14,139 -47,152c-33,12 -43,11 -75,-5z"/>
   <path stroke="#00000" id="svg_36" d="m6288,348c-18,-6 -28,-17 -28,-30c0,-15 4,-18 18,-13c41,18 75,18 89,-1c20,-27 16,-33 -24,-39c-58,-10 -72,-15 -88,-31c-20,-20 -19,-78 1,-98c18,-18 76,-21 105,-6c13,7 19,7 19,0c0,-5 9,-10 20,-10c19,0 20,7 20,95c0,88 -2,98 -25,120c-26,27 -60,31 -107,13zm92,-138c0,-43 -60,-76 -88,-48c-32,32 -1,66 61,67c21,1 27,-4 27,-19z"/>
   <path stroke="#00000" id="svg_37" d="m6694,341c-50,-31 -67,-101 -40,-166c17,-40 47,-58 96,-58c54,0 80,12 80,35c0,15 -4,18 -17,13c-62,-27 -123,-6 -123,40c0,25 1,25 81,25l81,0l-7,36c-8,47 -23,70 -52,83c-35,16 -64,13 -99,-8zm94,-33c7,-7 12,-20 12,-30c0,-15 -9,-18 -55,-18c-59,0 -68,10 -38,42c18,20 63,24 81,6z"/>
   <path stroke="#00000" id="svg_38" d="m1125,235c0,-113 0,-115 23,-115c22,0 22,2 22,115c0,113 0,115 -22,115c-23,0 -23,-2 -23,-115z"/>
   <path stroke="#00000" id="svg_39" d="m2370,235c0,-108 1,-115 20,-115c19,0 20,7 20,115c0,108 -1,115 -20,115c-19,0 -20,-7 -20,-115z"/>
   <path stroke="#00000" id="svg_40" d="m4170,235c0,-108 1,-115 20,-115c19,0 20,7 20,115c0,108 -1,115 -20,115c-19,0 -20,-7 -20,-115z"/>
   <path stroke="#00000" id="svg_41" d="m5860,235c0,-107 1,-115 19,-115c18,0 20,9 23,115c3,114 3,115 -19,115c-23,0 -23,-2 -23,-115z"/>
   <path stroke="#00000" id="svg_42" d="m3029,173c-10,-3 -21,-22 -28,-48c-14,-57 -14,-65 4,-65c9,0 20,21 31,56c17,60 17,62 -7,57z"/>
   <path stroke="#00000" id="svg_43" d="m7150,154c-11,-12 -10,-18 3,-32c16,-15 18,-15 34,0c13,14 14,20 3,32c-16,20 -24,20 -40,0z"/>
   <path stroke="#00000" id="svg_44" d="m69.428996,482.856502" opacity="0.5" stroke-width="null" fill="white"/>
   <path stroke="#00000" id="svg_2" d="m4453,5023c3,-5 -72,-49 -166,-98c-95,-48 -203,-106 -240,-127c-38,-21 -74,-35 -80,-31c-7,3 -9,3 -5,-2c10,-11 -300,-168 -315,-159c-6,4 -9,3 -4,-1c4,-5 -27,-28 -70,-51c-58,-32 -81,-40 -90,-32c-10,8 -12,7 -8,-3c4,-11 -38,-37 -147,-93c-188,-97 -276,-143 -533,-278c-110,-58 -204,-107 -210,-109c-10,-4 -237,-123 -392,-206c-46,-24 -83,-41 -83,-37c0,4 -8,0 -17,-8c-35,-30 -333,-179 -344,-172c-7,4 -9,3 -6,-3c7,-11 -46,-44 -65,-40c-7,2 -9,2 -4,-1c15,-8 -142,-82 -161,-76c-13,4 -14,3 -5,-3c9,-7 -24,-28 -110,-73c-68,-34 -147,-76 -176,-92c-29,-16 -58,-26 -65,-22c-6,4 -9,4 -5,-1c4,-4 -5,-15 -20,-23c-15,-7 -115,-59 -222,-114c-107,-55 -205,-107 -218,-115c-12,-7 -28,-11 -34,-7c-6,4 -8,3 -5,-2c3,-5 -43,-34 -101,-63c-59,-30 -123,-64 -142,-75l-35,-21l710,-5l710,-5l0,-37l0,-38l-452,0c-500,0 -557,-5 -667,-60c-104,-52 -113,-59 -178,-129c-72,-77 -115,-151 -150,-256c-23,-70 -23,-71 -23,-605c0,-294 3,-560 7,-590c4,-30 16,-81 27,-114c12,-32 18,-63 14,-69c-3,-5 -2,-7 4,-4c5,3 19,-11 31,-31c51,-90 156,-192 247,-239c115,-60 87,-58 635,-63l504,-5l-1,-22c0,-13 -1,-27 -2,-33c-1,-7 -247,-10 -716,-10l-715,0l0,-44c0,-43 1,-45 32,-48c18,-2 1553,-2 3411,0l3377,2l0,45l0,45l-145,0l-145,0l0,35l0,35l145,0l145,0l0,220l0,220l-145,0l-145,0l0,700l0,700l453,0c402,1 450,2 432,15c-124,93 -255,199 -255,207c0,6 -3,9 -6,5c-8,-7 -110,73 -107,84c2,5 -330,8 -737,6c-407,-1 -740,0 -740,3c0,3 -9,6 -19,6c-22,0 -20,-5 26,-62c18,-22 30,-44 26,-47c-3,-4 -1,-7 4,-7c16,0 73,-81 66,-93c-3,-6 -1,-7 5,-3c11,6 38,-31 34,-47c-1,-4 4,-6 10,-5c7,2 12,-5 12,-14c-1,-10 2,-16 6,-13c5,3 15,-4 23,-16c14,-19 25,-21 154,-22l138,-2l0,-695l0,-695l-2032,-3l-2033,-2l0,901l0,902l1061,1061c584,584 1065,1060 1070,1059c17,-5 9,6 -12,18c-12,6 -19,7 -16,2zm-2658,-3087c0,-448 -3,-809 -6,-803c-4,7 -34,120 -68,252c-34,132 -77,301 -96,375c-19,74 -35,141 -35,147c0,8 13,13 30,13c23,0 30,5 30,19c0,16 8,20 38,23c35,3 37,5 37,38c0,33 -2,35 -35,35c-28,1 -36,5 -38,23c-3,18 -10,22 -38,22c-22,0 -33,4 -29,11c9,14 -21,46 -51,53c-13,4 -40,0 -59,-8c-31,-13 -40,-25 -36,-48c0,-5 -12,-8 -28,-8c-23,0 -30,-5 -33,-22c-2,-18 -10,-22 -42,-23c-38,0 -40,-1 -40,-35c-1,-34 0,-35 42,-38c36,-3 42,-6 42,-26c0,-19 4,-22 33,-19c17,2 26,0 19,-3c-6,-3 -10,-10 -7,-14c6,-10 -194,-800 -205,-813c-4,-5 -21,-7 -38,-5l-30,3l44,95c24,52 44,102 44,111c0,8 -29,64 -64,123l-64,108l34,96c58,162 52,152 94,152c32,0 43,6 74,44c48,59 46,73 -6,36l-41,-30l-30,23c-27,21 -30,29 -34,93l-4,70l27,-1c25,0 30,6 45,55c30,94 30,95 -57,106c-59,7 -80,7 -89,-3c-7,-7 -16,-9 -20,-5c-4,4 -6,0 -3,-8c5,-13 -45,-127 -61,-140c-3,-3 -6,-12 -6,-20c0,-14 -51,-55 -194,-154c-39,-28 -69,-51 -67,-53c2,-2 41,5 87,16c46,11 85,18 87,16c2,-2 -4,-66 -13,-144l-16,-141l114,-124l114,-125l-15,-98c-8,-54 -16,-99 -17,-101c-1,-1 -55,-1 -120,0l-117,3l90,74l90,74l6,59l7,59l-56,65c-31,35 -60,64 -63,64c-4,0 -5,-50 -2,-111c6,-122 13,-99 -77,-242l-24,-38l-29,21c-15,11 -38,40 -49,63c-20,42 -21,57 -21,544l0,500l23,43c46,88 31,85 437,88l359,3l58,109c31,60 62,106 67,103c5,-3 6,-1 2,5c-9,15 18,55 29,44c5,-4 5,-2 1,5c-7,13 49,133 62,133c4,0 7,-366 7,-814zm-565,154c0,-5 -4,-10 -10,-10c-5,0 -10,5 -10,10c0,6 5,10 10,10c6,0 10,-4 10,-10zm303,-7c-13,-2 -35,-2 -50,0c-16,2 -5,4 22,4c28,0 40,-2 28,-4zm30,-170c-7,-2 -21,-2 -30,0c-10,3 -4,5 12,5c17,0 24,-2 18,-5zm-382,-20c13,-16 12,-17 -3,-4c-10,7 -18,15 -18,17c0,8 8,3 21,-13zm465,-413c69,-205 128,-380 131,-387c4,-10 -21,-13 -121,-13c-114,0 -126,2 -126,18c0,9 9,127 20,262c11,135 20,259 22,275c2,36 -52,206 -64,199c-4,-3 -8,-1 -8,4c0,10 12,24 16,19c2,-2 60,-171 130,-377zm-175,253c-12,-20 -14,-14 -5,12c4,9 9,14 11,11c3,-2 0,-13 -6,-23zm-17,-61c-3,-21 1,-119 10,-217c9,-99 19,-205 22,-235c2,-30 7,-74 10,-97l5,-43l-130,0l-130,0l107,315c59,173 108,315 110,315c1,0 0,-17 -4,-38zm4962,-1056c3,-14 3,-30 -1,-35c-4,-8 -621,-11 -2036,-11l-2029,0l0,35l0,35l2030,0l2030,0l6,-24z"/>
  </g>
 </g>
</svg>